<svg xmlns="http://www.w3.org/2000/svg" xmlns:xlink="http://www.w3.org/1999/xlink" width="500" zoomAndPan="magnify" viewBox="0 0 375 374.999991" height="500" preserveAspectRatio="xMidYMid meet" version="1.0"><defs><clipPath id="cf278b41d3"><path d="M 189 66.546875 L 286 66.546875 L 286 265.296875 L 189 265.296875 Z M 189 66.546875 " clip-rule="nonzero"/></clipPath><clipPath id="269269b4b4"><path d="M 224 260 L 248 260 L 248 265.296875 L 224 265.296875 Z M 224 260 " clip-rule="nonzero"/></clipPath><clipPath id="7248eb3d2d"><path d="M 88.777344 68 L 190 68 L 190 261 L 88.777344 261 Z M 88.777344 68 " clip-rule="nonzero"/></clipPath><clipPath id="372e0f9a4f"><path d="M 88.777344 66.546875 L 275 66.546875 L 275 251 L 88.777344 251 Z M 88.777344 66.546875 " clip-rule="nonzero"/></clipPath><clipPath id="37777216c0"><path d="M 224 260 L 248 260 L 248 265.296875 L 224 265.296875 Z M 224 260 " clip-rule="nonzero"/></clipPath><clipPath id="548241b05a"><path d="M 261 254 L 278 254 L 278 265.296875 L 261 265.296875 Z M 261 254 " clip-rule="nonzero"/></clipPath></defs><rect x="-37.5" width="450" fill="#ffffff" y="-37.499999" height="449.999989" fill-opacity="1"/><rect x="-37.5" width="450" fill="#ffffff" y="-37.499999" height="449.999989" fill-opacity="1"/><path fill="#eaeaea" d="M 217.121094 218.347656 C 217.109375 216.871094 216.984375 215.382812 216.761719 213.894531 L 226.203125 213.894531 C 227.535156 213.894531 228.613281 212.8125 228.613281 211.480469 L 228.613281 200.101562 C 227.890625 200.402344 227.105469 200.574219 226.273438 200.574219 C 222.890625 200.574219 220.148438 197.824219 220.148438 194.433594 C 220.148438 191.046875 222.890625 188.296875 226.273438 188.296875 C 227.105469 188.296875 227.890625 188.46875 228.613281 188.769531 L 228.613281 177.949219 C 228.613281 176.617188 227.535156 175.535156 226.203125 175.535156 L 214.640625 175.535156 C 215.101562 174.671875 215.363281 173.6875 215.363281 172.640625 C 215.363281 169.253906 212.621094 166.503906 209.238281 166.503906 C 205.855469 166.503906 203.113281 169.253906 203.113281 172.640625 C 203.113281 173.6875 203.375 174.671875 203.835938 175.535156 L 192.742188 175.535156 C 191.410156 175.535156 190.332031 176.617188 190.332031 177.949219 L 190.332031 192.625 C 189.261719 192.421875 188.175781 192.273438 187.078125 192.207031 L 185.195312 186.832031 C 183.972656 186.839844 182.746094 186.929688 181.519531 187.085938 L 181.519531 169.949219 C 181.519531 168.617188 180.4375 167.535156 179.109375 167.535156 L 167.542969 167.535156 C 168.003906 166.671875 168.265625 165.6875 168.265625 164.644531 C 168.265625 161.253906 165.523438 158.503906 162.140625 158.503906 C 158.757812 158.503906 156.015625 161.253906 156.015625 164.644531 C 156.015625 165.6875 156.277344 166.671875 156.738281 167.535156 L 145.644531 167.535156 C 144.316406 167.535156 143.234375 168.617188 143.234375 169.949219 L 143.234375 203.480469 C 143.234375 204.816406 144.316406 205.898438 145.644531 205.898438 L 156.402344 205.898438 C 156.125 206.527344 155.863281 207.167969 155.632812 207.816406 L 160.058594 211.378906 C 159.542969 213.183594 159.222656 215.042969 159.109375 216.9375 L 153.742188 218.824219 C 153.753906 220.605469 153.925781 222.398438 154.25 224.191406 L 159.855469 225.054688 C 160.085938 225.960938 160.359375 226.859375 160.691406 227.757812 C 161.019531 228.648438 161.394531 229.511719 161.808594 230.347656 L 158.109375 234.660156 C 159.03125 236.230469 160.066406 237.707031 161.210938 239.066406 L 166.511719 237 C 167.828125 238.367188 169.28125 239.566406 170.84375 240.605469 L 169.792969 246.195312 C 171.355469 247.082031 172.992188 247.835938 174.683594 248.449219 L 178.234375 244.015625 C 180.039062 244.527344 181.894531 244.851562 183.785156 244.964844 L 185.667969 250.339844 C 187.445312 250.328125 189.234375 250.15625 191.027344 249.835938 L 191.886719 244.214844 C 192.792969 243.988281 193.6875 243.710938 194.578125 243.378906 C 195.472656 243.046875 196.332031 242.675781 197.167969 242.257812 L 201.472656 245.964844 C 203.039062 245.042969 204.511719 244.007812 205.867188 242.855469 L 203.808594 237.542969 C 205.167969 236.226562 206.371094 234.773438 207.402344 233.207031 L 212.980469 234.257812 C 213.867188 232.691406 214.621094 231.050781 215.230469 229.355469 L 210.808594 225.796875 C 211.316406 223.992188 211.640625 222.128906 211.753906 220.238281 Z M 190.160156 231.40625 C 183.097656 234.023438 175.25 230.40625 172.640625 223.328125 C 170.027344 216.25 173.636719 208.382812 180.699219 205.765625 C 183.9375 204.566406 187.34375 204.679688 190.332031 205.835938 L 190.332031 211.480469 C 190.332031 212.8125 191.410156 213.894531 192.742188 213.894531 L 198.242188 213.894531 C 200.820312 220.960938 197.210938 228.792969 190.160156 231.40625 Z M 190.160156 231.40625 " fill-opacity="1" fill-rule="nonzero"/><g clip-path="url(#cf278b41d3)"><path fill="#eaeaea" d="M 285.96875 186.625 C 285.96875 186.617188 285.972656 186.613281 285.972656 186.609375 C 285.957031 186.261719 285.875 185.351562 285.761719 184.207031 C 285.460938 181.203125 284.953125 176.609375 284.953125 176.609375 L 282.898438 158.191406 L 283.691406 158.035156 C 282.804688 149.234375 282.53125 138.828125 282.375 136.769531 C 282.164062 134.339844 281.960938 131.910156 281.660156 129.488281 C 281.375 127.207031 279.921875 125.359375 277.976562 124.464844 C 277.980469 124.445312 277.980469 124.433594 277.980469 124.433594 C 273.480469 122.488281 269.078125 121.199219 264.71875 120.570312 L 264.792969 121.535156 L 264.167969 113.226562 L 264.183594 113.460938 C 265.421875 113.242188 270.289062 112.101562 269.738281 107.667969 C 269.738281 107.667969 273.574219 103.253906 269.765625 99.820312 C 269.808594 95.832031 267.664062 93.898438 263.667969 93.703125 C 263.667969 93.703125 256.40625 93.085938 253.453125 92.867188 C 253.730469 92.046875 253.949219 91.207031 254.097656 90.347656 L 257.722656 89.511719 C 257.84375 88.351562 257.863281 87.175781 257.78125 85.984375 L 254.203125 85.015625 C 254.117188 84.410156 254.003906 83.808594 253.855469 83.203125 C 253.703125 82.597656 253.523438 82.007812 253.316406 81.433594 L 256.03125 78.902344 C 255.546875 77.8125 254.980469 76.78125 254.335938 75.8125 L 250.742188 76.769531 C 249.984375 75.785156 249.125 74.898438 248.1875 74.113281 L 249.273438 70.554688 C 248.324219 69.863281 247.316406 69.253906 246.261719 68.734375 L 243.628906 71.359375 C 242.496094 70.894531 241.3125 70.546875 240.09375 70.335938 L 239.257812 66.703125 C 238.101562 66.582031 236.925781 66.5625 235.738281 66.644531 L 234.773438 70.230469 C 234.167969 70.316406 233.566406 70.429688 232.960938 70.582031 C 232.355469 70.730469 231.773438 70.910156 231.199219 71.121094 L 228.671875 68.398438 C 227.585938 68.882812 226.554688 69.449219 225.589844 70.097656 L 226.542969 73.699219 C 225.5625 74.457031 224.675781 75.320312 223.890625 76.257812 L 220.34375 75.167969 C 219.652344 76.121094 219.042969 77.132812 218.523438 78.1875 L 221.144531 80.828125 C 220.679688 81.960938 220.335938 83.148438 220.125 84.367188 L 216.5 85.207031 C 216.378906 86.363281 216.359375 87.542969 216.4375 88.730469 L 220.019531 89.699219 C 220.105469 90.304688 220.21875 90.910156 220.367188 91.515625 C 220.515625 92.121094 220.695312 92.707031 220.90625 93.28125 L 219.699219 94.40625 L 214.734375 94.40625 C 215.183594 95.253906 215.441406 96.222656 215.441406 97.25 C 215.441406 100.601562 212.730469 103.320312 209.382812 103.320312 C 206.039062 103.320312 203.328125 100.601562 203.328125 97.25 C 203.328125 96.222656 203.585938 95.253906 204.035156 94.40625 L 191.824219 94.40625 C 190.503906 94.40625 189.429688 95.480469 189.429688 96.808594 L 189.429688 107.867188 C 190.300781 107.523438 191.269531 107.367188 192.285156 107.476562 C 195.226562 107.796875 197.539062 110.289062 197.644531 113.246094 C 197.765625 116.675781 195.03125 119.488281 191.636719 119.488281 C 190.859375 119.488281 190.113281 119.335938 189.429688 119.066406 L 189.429688 130.125 C 189.429688 131.449219 190.503906 132.527344 191.824219 132.527344 L 196.195312 132.527344 C 196.15625 132.96875 196.464844 133.375 197.160156 133.480469 C 197.394531 133.515625 197.6875 133.546875 198.015625 133.578125 C 197.769531 134.074219 197.949219 134.59375 198.667969 134.675781 C 198.980469 134.710938 199.445312 134.761719 200 134.820312 C 200.132812 135.007812 200.339844 135.164062 200.625 135.25 C 201.890625 135.632812 204.308594 136.167969 205.242188 136.371094 C 205.492188 136.425781 205.742188 136.460938 205.996094 136.484375 C 205.996094 136.484375 210.859375 136.890625 211.589844 136.925781 L 211.605469 136.929688 C 211.769531 136.9375 211.941406 136.941406 212.109375 136.941406 L 222.464844 155.71875 C 224.222656 158.613281 227.992188 159.535156 230.878906 157.773438 C 231.375 157.46875 233.453125 155.339844 235.566406 153.109375 L 237.746094 156.167969 L 241.324219 148.078125 L 241.417969 149.078125 C 241.425781 149.203125 241.53125 149.292969 241.648438 149.292969 C 241.65625 149.292969 241.664062 149.292969 241.671875 149.292969 C 241.683594 149.289062 241.691406 149.285156 241.703125 149.28125 C 241.886719 151.761719 242.003906 153.832031 242.003906 155.109375 C 242.003906 159.882812 241.28125 168.292969 241.28125 171.785156 C 241.28125 172.386719 241.566406 172.925781 242.011719 173.273438 L 241.871094 177.109375 C 241.886719 177.105469 241.902344 177.101562 241.917969 177.101562 C 241.761719 177.101562 241.636719 177.226562 241.636719 177.378906 C 241.636719 177.535156 241.761719 177.660156 241.917969 177.660156 C 241.894531 177.660156 241.871094 177.652344 241.851562 177.644531 L 240.613281 211.382812 L 238.996094 249.425781 L 239.246094 249.425781 C 239.0625 251.734375 238.726562 253.292969 238.214844 254.59375 C 240.734375 257.929688 244.035156 257.667969 246.234375 256.796875 C 244.035156 257.667969 240.734375 257.929688 238.210938 254.59375 C 236.566406 256.652344 232.257812 259.277344 228.917969 260.902344 L 230.371094 263.171875 L 247.773438 263.171875 C 247.816406 261.378906 247.710938 258.757812 246.96875 256.46875 C 246.957031 254.308594 247.261719 251.414062 247.507812 249.425781 L 248.457031 249.425781 C 250.515625 242.578125 255.296875 225.691406 252.964844 213.558594 L 258.066406 178.921875 L 255.027344 178.730469 L 259.328125 179 C 259.335938 179 259.339844 179 259.347656 179 C 259.347656 179 259.351562 179 259.355469 179 L 261.5 249.425781 L 262.03125 249.425781 C 262.027344 249.574219 262.019531 249.714844 262.019531 249.867188 C 262.019531 252.570312 261.859375 254.636719 261.730469 257.511719 C 261.71875 257.730469 261.710938 257.949219 261.699219 258.175781 C 261.699219 258.257812 261.695312 258.347656 261.691406 258.433594 C 261.683594 258.558594 261.679688 258.6875 261.675781 258.820312 C 261.671875 258.957031 261.664062 259.101562 261.660156 259.242188 C 261.65625 259.328125 261.65625 259.410156 261.652344 259.492188 C 261.644531 259.664062 261.640625 259.839844 261.636719 260.015625 C 261.632812 260.066406 261.632812 260.117188 261.628906 260.167969 C 261.59375 261.421875 261.566406 262.828125 261.558594 264.476562 C 261.558594 264.941406 261.933594 265.324219 262.398438 265.324219 L 277.140625 265.324219 C 277.652344 265.324219 278.054688 264.863281 277.96875 264.355469 C 277.660156 262.445312 276.433594 261.097656 275.035156 259.820312 C 274.984375 259.773438 274.933594 259.730469 274.882812 259.683594 C 274.460938 259.304688 274.03125 258.925781 273.601562 258.539062 C 273.5 258.449219 273.402344 258.359375 273.304688 258.269531 C 273.199219 258.171875 273.09375 258.074219 272.988281 257.976562 C 272.882812 257.875 272.78125 257.773438 272.679688 257.671875 C 272.585938 257.578125 272.492188 257.484375 272.398438 257.386719 C 272.292969 257.277344 272.191406 257.164062 272.09375 257.050781 C 272.007812 256.960938 271.925781 256.867188 271.84375 256.769531 C 271.742188 256.648438 271.644531 256.519531 271.546875 256.390625 C 271.476562 256.296875 271.402344 256.207031 271.335938 256.113281 C 271.234375 255.964844 271.140625 255.8125 271.046875 255.65625 C 270.996094 255.574219 270.941406 255.492188 270.890625 255.40625 C 270.757812 255.167969 270.636719 254.917969 270.527344 254.65625 C 270.527344 254.652344 270.523438 254.648438 270.523438 254.644531 C 270.476562 254.539062 270.441406 254.429688 270.402344 254.320312 C 269.808594 252.699219 269.710938 251.066406 269.769531 249.425781 L 270.941406 249.425781 C 271.730469 244.707031 273.222656 235.660156 273.9375 230.289062 C 274.9375 222.78125 273.457031 211.746094 273.457031 211.746094 L 274.125 177.65625 C 274.128906 177.65625 274.128906 177.660156 274.128906 177.660156 C 274.285156 177.660156 274.410156 177.535156 274.410156 177.378906 C 274.410156 177.226562 274.289062 177.105469 274.136719 177.101562 L 274.210938 173.363281 C 274.71875 173.023438 275.054688 172.449219 275.054688 171.800781 C 275.054688 170.21875 274.90625 167.621094 274.742188 164.804688 C 276.109375 169.695312 277.703125 175.394531 278.277344 177.441406 L 278.273438 177.441406 C 278.148438 177.480469 278.078125 177.609375 278.117188 177.734375 C 278.132812 177.789062 278.167969 177.828125 278.210938 177.859375 C 278.167969 177.925781 278.121094 177.992188 278.085938 178.058594 C 277.179688 179.734375 277.003906 180.867188 277.265625 183.269531 C 277.183594 183.320312 277.136719 183.414062 277.15625 183.511719 C 277.113281 183.5 277.070312 183.480469 277.023438 183.476562 C 276.402344 183.398438 275.859375 183.902344 275.882812 184.53125 L 276.015625 187.8125 C 276.027344 188.121094 276.175781 188.402344 276.421875 188.585938 L 278.714844 190.324219 C 278.84375 190.550781 278.996094 190.75 279.191406 190.902344 C 279.34375 191.019531 279.527344 191.082031 279.714844 191.082031 C 279.71875 191.082031 279.722656 191.082031 279.726562 191.082031 C 280.085938 191.328125 280.5625 191.324219 280.910156 191.058594 L 285.570312 187.535156 C 285.835938 187.332031 285.988281 187.011719 285.976562 186.679688 Z M 262.371094 257.648438 C 262.417969 257.648438 262.464844 257.652344 262.511719 257.648438 C 262.460938 257.652344 262.417969 257.648438 262.371094 257.648438 Z M 263.933594 257.019531 C 264.042969 256.925781 264.148438 256.824219 264.257812 256.707031 C 264.398438 256.558594 264.539062 256.414062 264.679688 256.277344 C 264.539062 256.414062 264.398438 256.554688 264.261719 256.707031 C 264.148438 256.824219 264.042969 256.925781 263.933594 257.019531 Z M 262.640625 257.640625 C 262.691406 257.632812 262.746094 257.625 262.800781 257.613281 C 262.746094 257.625 262.691406 257.632812 262.640625 257.640625 Z M 262.917969 257.589844 C 263.011719 257.5625 263.101562 257.535156 263.199219 257.492188 C 263.101562 257.535156 263.011719 257.5625 262.917969 257.589844 Z M 263.269531 257.457031 C 263.347656 257.421875 263.425781 257.378906 263.503906 257.332031 C 263.425781 257.378906 263.347656 257.421875 263.269531 257.457031 Z M 263.609375 257.261719 C 263.683594 257.214844 263.757812 257.160156 263.835938 257.097656 C 263.757812 257.160156 263.683594 257.214844 263.609375 257.261719 Z M 268.839844 254.109375 C 268.578125 254.121094 268.316406 254.160156 268.054688 254.21875 C 267.90625 254.253906 267.757812 254.300781 267.609375 254.347656 C 268.273438 254.125 268.945312 254.046875 269.621094 254.140625 C 269.359375 254.105469 269.101562 254.09375 268.839844 254.109375 Z M 264.808594 256.15625 C 264.910156 256.058594 265.011719 255.96875 265.109375 255.878906 C 265.011719 255.96875 264.910156 256.058594 264.808594 256.15625 Z M 265.257812 255.75 C 265.359375 255.664062 265.460938 255.582031 265.5625 255.503906 C 265.460938 255.582031 265.359375 255.664062 265.257812 255.75 Z M 265.695312 255.398438 C 265.980469 255.179688 266.273438 254.988281 266.566406 254.820312 C 266.273438 254.988281 265.980469 255.179688 265.695312 255.398438 Z M 266.699219 254.75 C 266.800781 254.695312 266.90625 254.640625 267.011719 254.589844 C 266.90625 254.640625 266.800781 254.695312 266.699219 254.75 Z M 267.160156 254.523438 C 267.265625 254.476562 267.371094 254.4375 267.476562 254.398438 C 267.371094 254.4375 267.265625 254.476562 267.160156 254.523438 Z M 270.011719 254.210938 C 269.894531 254.183594 269.777344 254.164062 269.660156 254.148438 C 269.777344 254.164062 269.894531 254.183594 270.011719 254.210938 Z M 270.472656 174.105469 C 270.316406 174.128906 270.160156 174.148438 270.003906 174.167969 C 270.390625 174.121094 270.773438 174.070312 271.15625 174.015625 C 270.929688 174.046875 270.703125 174.078125 270.472656 174.109375 C 270.472656 174.109375 270.472656 174.109375 270.472656 174.105469 Z M 271.753906 173.933594 C 272.332031 173.847656 272.910156 173.757812 273.476562 173.660156 C 272.910156 173.757812 272.332031 173.847656 271.753906 173.933594 Z M 269.265625 174.257812 C 268.921875 174.296875 268.582031 174.335938 268.238281 174.371094 C 268.582031 174.335938 268.921875 174.296875 269.265625 174.257812 Z M 267.414062 174.449219 C 267.09375 174.480469 266.777344 174.507812 266.457031 174.535156 C 266.777344 174.507812 267.09375 174.480469 267.414062 174.449219 Z M 265.5625 174.605469 C 265.265625 174.625 264.96875 174.648438 264.667969 174.664062 C 264.96875 174.648438 265.265625 174.625 265.5625 174.605469 Z M 263.710938 174.722656 C 263.4375 174.738281 263.164062 174.75 262.890625 174.761719 C 263.164062 174.75 263.4375 174.738281 263.710938 174.722656 Z M 234.964844 78.683594 C 239.746094 77.496094 244.585938 80.417969 245.769531 85.210938 C 246.953125 90 244.035156 94.847656 239.253906 96.035156 C 234.476562 97.21875 229.636719 94.296875 228.453125 89.507812 C 227.269531 84.714844 230.183594 79.867188 234.964844 78.683594 Z M 240.664062 123.914062 C 240.65625 123.917969 240.648438 123.921875 240.640625 123.925781 C 239.121094 124.453125 237.808594 125.574219 237.078125 127.160156 L 228.210938 142.777344 L 234.003906 150.910156 L 228.632812 143.367188 L 228.210938 143.796875 L 219.542969 132.523438 L 225.074219 132.523438 C 226.398438 132.523438 227.46875 131.449219 227.46875 130.125 L 227.46875 105.726562 C 227.632812 105.8125 227.796875 105.902344 227.960938 105.984375 L 230.589844 103.359375 C 231.726562 103.824219 232.90625 104.167969 234.128906 104.382812 L 234.960938 108.011719 C 236.117188 108.132812 237.292969 108.152344 238.480469 108.074219 L 239.449219 104.484375 C 240.054688 104.402344 240.652344 104.285156 241.257812 104.136719 C 241.863281 103.988281 242.449219 103.804688 243.023438 103.597656 L 245.550781 106.316406 C 246.636719 105.832031 247.667969 105.265625 248.632812 104.617188 L 247.679688 101.015625 C 248.660156 100.257812 249.542969 99.402344 250.328125 98.457031 L 250.503906 98.511719 C 250.554688 98.6875 250.617188 98.839844 250.695312 98.980469 C 250.183594 100 249.847656 101.128906 249.75 102.332031 C 249.621094 103.90625 249.898438 105.414062 250.492188 106.761719 C 250.480469 107.003906 250.480469 107.144531 250.480469 107.144531 L 250.566406 112.179688 C 250.605469 114.457031 251.734375 116.515625 253.460938 117.765625 L 253.4375 120.4375 C 249.210938 120.957031 244.972656 122.109375 240.664062 123.914062 Z M 251.726562 99.785156 C 251.65625 100 251.589844 100.214844 251.527344 100.429688 C 251.589844 100.214844 251.65625 100 251.726562 99.785156 Z M 251.472656 100.628906 C 251.433594 100.777344 251.390625 100.925781 251.355469 101.070312 C 251.390625 100.925781 251.433594 100.777344 251.472656 100.628906 Z M 251.296875 101.292969 C 251.261719 101.4375 251.226562 101.582031 251.195312 101.722656 C 251.226562 101.582031 251.261719 101.4375 251.296875 101.292969 Z M 251.148438 101.921875 C 251.109375 102.101562 251.070312 102.285156 251.035156 102.460938 C 251.070312 102.285156 251.109375 102.101562 251.148438 101.921875 Z M 251.019531 102.523438 C 250.980469 102.722656 250.945312 102.917969 250.910156 103.113281 C 250.945312 102.917969 250.980469 102.722656 251.019531 102.523438 Z M 250.882812 103.269531 C 250.859375 103.410156 250.835938 103.546875 250.816406 103.679688 C 250.835938 103.546875 250.859375 103.410156 250.882812 103.269531 Z M 250.785156 103.863281 C 250.765625 103.988281 250.75 104.109375 250.734375 104.230469 C 250.75 104.109375 250.765625 103.988281 250.785156 103.863281 Z M 250.710938 104.394531 C 250.691406 104.535156 250.675781 104.671875 250.660156 104.804688 C 250.675781 104.671875 250.691406 104.535156 250.710938 104.394531 Z M 250.648438 104.882812 C 250.628906 105.039062 250.613281 105.191406 250.601562 105.335938 C 250.613281 105.191406 250.628906 105.039062 250.648438 104.882812 Z M 250.589844 105.453125 C 250.578125 105.554688 250.570312 105.652344 250.5625 105.746094 C 250.570312 105.652344 250.578125 105.554688 250.589844 105.453125 Z M 250.550781 105.890625 C 250.542969 105.964844 250.535156 106.039062 250.53125 106.109375 C 250.535156 106.039062 250.542969 105.96875 250.550781 105.890625 Z M 250.523438 106.246094 C 250.519531 106.3125 250.515625 106.371094 250.511719 106.429688 C 250.515625 106.371094 250.519531 106.3125 250.523438 106.246094 Z M 250.503906 106.546875 C 250.5 106.578125 250.5 106.605469 250.5 106.636719 C 250.5 106.605469 250.5 106.578125 250.503906 106.546875 Z M 246.167969 174.117188 C 246.140625 174.113281 246.117188 174.109375 246.09375 174.105469 C 246.105469 174.109375 246.121094 174.109375 246.132812 174.113281 C 246.144531 174.113281 246.15625 174.113281 246.167969 174.117188 Z M 242.480469 173.535156 C 242.425781 173.515625 242.375 173.492188 242.328125 173.46875 C 242.375 173.492188 242.425781 173.515625 242.480469 173.535156 Z M 242.871094 173.648438 C 242.773438 173.632812 242.675781 173.605469 242.585938 173.574219 C 242.675781 173.605469 242.773438 173.632812 242.871094 173.648438 Z M 247.6875 174.292969 C 247.742188 174.296875 247.796875 174.304688 247.851562 174.308594 C 247.796875 174.304688 247.742188 174.296875 247.6875 174.292969 Z M 252.917969 174.714844 C 252.984375 174.71875 253.054688 174.71875 253.125 174.722656 C 253.054688 174.71875 252.984375 174.71875 252.917969 174.714844 Z M 249.386719 174.457031 C 249.464844 174.464844 249.546875 174.472656 249.625 174.480469 C 249.546875 174.472656 249.464844 174.464844 249.386719 174.457031 Z M 251.136719 174.601562 C 251.222656 174.605469 251.304688 174.613281 251.390625 174.617188 C 251.304688 174.613281 251.222656 174.605469 251.136719 174.601562 Z M 259.539062 178.921875 C 259.542969 178.917969 259.546875 178.914062 259.550781 178.90625 C 259.546875 178.914062 259.542969 178.917969 259.539062 178.921875 Z M 259.597656 178.839844 C 259.613281 178.808594 259.621094 178.777344 259.625 178.738281 C 259.621094 178.777344 259.613281 178.808594 259.597656 178.839844 Z M 261.167969 174.824219 C 261.394531 174.816406 261.625 174.8125 261.851562 174.804688 C 261.625 174.8125 261.394531 174.816406 261.167969 174.824219 Z M 259.714844 174.855469 C 259.804688 174.851562 259.894531 174.851562 259.984375 174.851562 C 259.894531 174.855469 259.804688 174.851562 259.714844 174.855469 Z M 270.019531 174.460938 C 269.976562 174.367188 269.941406 174.273438 269.90625 174.183594 C 269.941406 174.273438 269.976562 174.367188 270.019531 174.460938 Z M 270.835938 175.917969 C 270.835938 175.914062 270.835938 175.914062 270.835938 175.914062 C 270.835938 175.914062 270.835938 175.914062 270.835938 175.917969 Z M 270.289062 175.039062 C 270.285156 175.03125 270.28125 175.019531 270.277344 175.011719 C 270.28125 175.023438 270.285156 175.03125 270.289062 175.039062 Z M 273.855469 173.550781 C 273.863281 173.546875 273.871094 173.542969 273.882812 173.539062 C 273.875 173.542969 273.863281 173.546875 273.855469 173.550781 Z M 274.605469 162.382812 C 274.625 162.738281 274.644531 163.09375 274.664062 163.445312 C 274.644531 163.09375 274.625 162.738281 274.605469 162.382812 Z M 274.472656 159.882812 C 274.492188 160.242188 274.507812 160.605469 274.527344 160.972656 C 274.511719 160.605469 274.492188 160.242188 274.472656 159.882812 Z M 274.546875 161.285156 C 274.5625 161.597656 274.578125 161.910156 274.597656 162.222656 C 274.578125 161.910156 274.5625 161.597656 274.546875 161.285156 Z M 274.695312 163.980469 C 274.703125 164.101562 274.710938 164.222656 274.714844 164.34375 C 274.710938 164.222656 274.703125 164.101562 274.695312 163.980469 Z M 274.695312 163.980469 " fill-opacity="1" fill-rule="nonzero"/></g><g clip-path="url(#269269b4b4)"><path fill="#eaeaea" d="M 224.871094 264.375 C 224.804688 264.875 225.199219 265.324219 225.703125 265.324219 L 246.871094 265.324219 C 247.3125 265.324219 247.675781 264.984375 247.710938 264.546875 C 247.734375 264.1875 247.761719 263.714844 247.773438 263.171875 L 230.371094 263.171875 L 228.921875 260.902344 C 228.414062 261.148438 227.925781 261.375 227.476562 261.570312 C 225.496094 262.429688 224.996094 263.417969 224.871094 264.375 Z M 224.871094 264.375 " fill-opacity="1" fill-rule="nonzero"/></g><g clip-path="url(#7248eb3d2d)"><path fill="#eaeaea" d="M 142.824219 153.203125 C 142.824219 154.523438 143.890625 155.59375 145.207031 155.59375 L 155.742188 155.59375 C 155.460938 154.886719 155.300781 154.117188 155.300781 153.3125 C 155.300781 149.921875 158.042969 147.175781 161.425781 147.175781 C 164.808594 147.175781 167.550781 149.921875 167.550781 153.3125 C 167.550781 154.117188 167.390625 154.886719 167.109375 155.59375 L 178.296875 155.59375 C 179.613281 155.59375 180.679688 154.523438 180.679688 153.203125 L 180.679688 141.746094 C 181.527344 142.203125 182.5 142.464844 183.53125 142.464844 C 186.875 142.464844 189.589844 139.746094 189.589844 136.394531 C 189.589844 133.042969 186.878906 130.324219 183.53125 130.324219 C 182.5 130.324219 181.527344 130.585938 180.679688 131.039062 L 180.679688 120.050781 C 180.679688 118.730469 179.613281 117.660156 178.296875 117.660156 L 157.019531 117.660156 C 157.03125 117.601562 157.046875 117.535156 157.058594 117.476562 L 157.941406 115.882812 C 158.203125 115.308594 157.898438 114.640625 157.300781 114.457031 C 156.886719 114.332031 156.472656 114.484375 156.210938 114.796875 C 156.171875 114.320312 155.839844 113.898438 155.34375 113.777344 C 154.78125 113.636719 154.242188 113.953125 154.019531 114.472656 C 154.042969 113.867188 153.59375 113.328125 152.96875 113.277344 C 152.316406 113.21875 151.777344 113.71875 151.714844 114.371094 C 151.710938 114.414062 151.707031 114.46875 151.703125 114.53125 L 150.953125 114.464844 C 150.765625 113.953125 150.234375 113.621094 149.664062 113.726562 C 149.320312 113.789062 149.050781 114 148.890625 114.28125 L 148.757812 114.269531 C 148.757812 114.269531 148.546875 115.527344 148.273438 117.492188 C 148.058594 117.089844 147.792969 116.574219 147.53125 116.019531 C 147.21875 115.347656 146.863281 114.867188 146.515625 114.535156 C 146.792969 114.039062 147.066406 113.535156 147.316406 113.023438 L 145.101562 110.792969 C 145.539062 108.546875 146.089844 106.558594 146.300781 103.515625 L 150.328125 102.585938 C 150.511719 100.863281 150.539062 99.113281 150.417969 97.34375 L 145.09375 95.902344 C 144.96875 95 144.800781 94.105469 144.578125 93.207031 C 144.355469 92.300781 144.085938 91.429688 143.777344 90.574219 L 147.816406 86.808594 C 147.09375 85.191406 146.253906 83.652344 145.292969 82.214844 L 139.949219 83.636719 C 138.824219 82.175781 137.546875 80.855469 136.152344 79.6875 L 137.769531 74.394531 C 136.351562 73.367188 134.851562 72.460938 133.285156 71.6875 L 129.371094 75.589844 C 127.6875 74.902344 125.925781 74.382812 124.113281 74.070312 L 122.871094 68.671875 C 121.152344 68.488281 119.40625 68.460938 117.640625 68.582031 L 116.203125 73.917969 C 115.300781 74.042969 114.40625 74.210938 113.503906 74.433594 C 112.609375 74.65625 111.738281 74.925781 110.882812 75.238281 L 107.128906 71.191406 C 105.511719 71.910156 103.976562 72.753906 102.542969 73.71875 L 103.960938 79.074219 C 102.503906 80.203125 101.1875 81.484375 100.015625 82.878906 L 94.738281 81.257812 C 93.714844 82.675781 92.808594 84.179688 92.035156 85.75 L 95.929688 89.675781 C 95.238281 91.363281 94.726562 93.125 94.414062 94.941406 L 89.023438 96.183594 C 88.84375 97.90625 88.816406 99.660156 88.933594 101.429688 L 94.261719 102.867188 C 94.382812 103.769531 94.554688 104.667969 94.777344 105.570312 C 95 106.46875 95.265625 107.34375 95.578125 108.199219 L 91.539062 111.964844 C 92.257812 113.582031 93.097656 115.117188 94.0625 116.558594 L 99.40625 115.136719 C 100.53125 116.597656 101.804688 117.917969 103.203125 119.089844 L 101.585938 124.378906 C 102.511719 125.050781 103.476562 125.664062 104.472656 126.230469 C 100.222656 133.953125 98.5 144.199219 105.667969 150.902344 C 105.886719 150.691406 106.089844 150.5 106.269531 150.335938 C 106.476562 150.519531 106.722656 150.667969 106.996094 150.769531 C 107.085938 150.800781 107.183594 150.832031 107.273438 150.863281 L 105.808594 151.042969 C 105.757812 150.996094 105.71875 150.949219 105.667969 150.902344 C 102.6875 153.785156 96.558594 160.761719 96.558594 169.398438 L 97.019531 193.878906 C 97.070312 197.257812 96.507812 200.621094 95.347656 203.796875 C 90.496094 217.058594 91.410156 238.40625 91.410156 247.667969 L 92.230469 247.667969 C 92.234375 248.886719 92.222656 250.238281 92.191406 251.644531 C 91.847656 254.226562 91.398438 256.144531 91.339844 258.601562 L 91.292969 258.601562 C 91.164062 258.601562 91.058594 258.707031 91.058594 258.835938 C 91.058594 258.964844 91.164062 259.070312 91.292969 259.070312 L 91.335938 259.070312 C 91.335938 259.605469 91.351562 260.167969 91.394531 260.773438 L 104.964844 260.773438 C 104.9375 260.015625 104.761719 259.390625 104.488281 258.847656 C 104.488281 258.84375 104.488281 258.839844 104.488281 258.835938 C 104.488281 258.75 104.445312 258.679688 104.378906 258.640625 C 103.011719 256.230469 99.742188 255.460938 99.71875 251.757812 C 99.671875 251.464844 99.585938 251.222656 99.46875 251.03125 C 99.523438 251.125 99.574219 251.226562 99.613281 251.34375 C 99.636719 250.191406 99.726562 248.90625 99.839844 247.667969 L 100.769531 247.667969 L 110.941406 203.605469 L 112.164062 195.246094 C 112.167969 195.292969 112.171875 195.34375 112.175781 195.394531 L 111.578125 199.9375 C 111.558594 200.089844 111.664062 200.230469 111.816406 200.25 C 111.828125 200.253906 111.84375 200.253906 111.855469 200.253906 C 111.992188 200.253906 112.113281 200.152344 112.128906 200.011719 L 116.046875 170.289062 L 112.316406 198.597656 C 112.289062 200.367188 112.089844 202.105469 111.710938 203.796875 C 108.730469 217.058594 111.613281 238.40625 112.917969 247.667969 L 113.398438 247.667969 C 113.421875 249.320312 113.320312 250.929688 112.992188 252.363281 C 112.992188 252.371094 112.015625 254.914062 112.085938 258.601562 C 111.957031 258.601562 111.855469 258.707031 111.855469 258.835938 C 111.855469 258.964844 111.957031 259.070312 112.089844 259.070312 L 112.097656 259.070312 C 112.121094 259.617188 112.167969 260.1875 112.242188 260.773438 L 135.179688 260.773438 C 135.179688 260.773438 135.359375 259.964844 134.921875 259.039062 C 135 259.003906 135.050781 258.925781 135.050781 258.835938 C 135.050781 258.703125 134.949219 258.601562 134.816406 258.601562 L 134.664062 258.601562 C 134.285156 258.050781 133.652344 257.496094 132.597656 257.082031 C 129.777344 255.972656 126.164062 255.113281 122.078125 250.671875 C 118.605469 254.257812 113.519531 252.554688 113.035156 252.378906 C 113.519531 252.554688 118.578125 254.25 122.046875 250.699219 C 121.984375 249.792969 121.96875 248.753906 121.976562 247.667969 L 122.277344 247.667969 L 126.308594 203.605469 L 125.363281 165.324219 L 125.363281 152.445312 C 125.667969 152.335938 125.941406 152.167969 126.171875 151.945312 C 127.625 152.683594 129.433594 152.546875 130.769531 151.449219 L 147.371094 137.816406 L 142.824219 141.550781 Z M 99.171875 250.6875 C 99.132812 250.652344 99.09375 250.617188 99.050781 250.589844 C 99.09375 250.617188 99.132812 250.65625 99.171875 250.6875 Z M 98.921875 250.527344 C 98.878906 250.503906 98.835938 250.480469 98.785156 250.464844 C 98.835938 250.480469 98.878906 250.503906 98.921875 250.527344 Z M 98.644531 250.425781 C 98.59375 250.410156 98.546875 250.398438 98.492188 250.390625 C 98.546875 250.398438 98.59375 250.410156 98.644531 250.425781 Z M 98.339844 250.375 C 98.285156 250.371094 98.230469 250.367188 98.175781 250.367188 C 98.230469 250.367188 98.285156 250.371094 98.339844 250.375 Z M 98.011719 250.371094 C 97.953125 250.375 97.894531 250.378906 97.835938 250.386719 C 97.894531 250.378906 97.953125 250.375 98.011719 250.371094 Z M 97.664062 250.410156 C 97.601562 250.421875 97.542969 250.433594 97.480469 250.445312 C 97.542969 250.433594 97.601562 250.421875 97.664062 250.410156 Z M 97.304688 250.488281 C 97.238281 250.503906 97.175781 250.523438 97.109375 250.542969 C 97.175781 250.523438 97.238281 250.503906 97.304688 250.488281 Z M 96.933594 250.597656 C 96.867188 250.617188 96.800781 250.640625 96.734375 250.667969 C 96.800781 250.640625 96.867188 250.617188 96.933594 250.597656 Z M 96.558594 250.730469 C 96.488281 250.757812 96.421875 250.789062 96.355469 250.816406 C 96.421875 250.789062 96.488281 250.757812 96.558594 250.730469 Z M 96.183594 250.890625 C 96.113281 250.921875 96.042969 250.953125 95.972656 250.988281 C 96.042969 250.953125 96.113281 250.921875 96.183594 250.890625 Z M 95.8125 251.066406 C 95.738281 251.101562 95.667969 251.136719 95.59375 251.175781 C 95.667969 251.136719 95.738281 251.101562 95.8125 251.066406 Z M 95.449219 251.25 C 95.367188 251.296875 95.289062 251.339844 95.210938 251.382812 C 95.289062 251.339844 95.367188 251.296875 95.449219 251.25 Z M 95.097656 251.445312 C 94.984375 251.511719 94.871094 251.578125 94.765625 251.644531 C 94.871094 251.578125 94.984375 251.511719 95.097656 251.445312 Z M 99.277344 250.777344 C 99.320312 250.820312 99.351562 250.871094 99.386719 250.917969 C 99.351562 250.871094 99.320312 250.820312 99.277344 250.777344 Z M 145.191406 117.664062 C 144.957031 117.664062 144.738281 117.710938 144.523438 117.773438 C 144.523438 117.675781 144.519531 117.582031 144.519531 117.488281 L 144.613281 117.515625 C 144.777344 117.292969 144.929688 117.0625 145.085938 116.835938 C 145.121094 117.105469 145.152344 117.378906 145.191406 117.664062 Z M 128.746094 124.902344 C 128.714844 124.871094 128.683594 124.835938 128.652344 124.804688 C 128.6875 124.835938 128.714844 124.871094 128.746094 124.902344 Z M 112.445312 152.273438 C 112.40625 152.265625 112.367188 152.261719 112.328125 152.25 C 112.367188 152.261719 112.40625 152.265625 112.445312 152.273438 Z M 111.335938 152.039062 C 111.3125 152.035156 111.285156 152.027344 111.261719 152.023438 C 111.285156 152.027344 111.3125 152.035156 111.335938 152.039062 Z M 110.257812 151.777344 C 110.246094 151.773438 110.230469 151.773438 110.222656 151.769531 C 110.234375 151.769531 110.246094 151.773438 110.257812 151.777344 Z M 113.589844 152.480469 C 113.53125 152.472656 113.472656 152.464844 113.414062 152.453125 C 113.472656 152.464844 113.53125 152.472656 113.589844 152.480469 Z M 118.386719 152.964844 C 118.246094 152.957031 118.101562 152.957031 117.957031 152.949219 C 118.101562 152.957031 118.246094 152.957031 118.386719 152.964844 Z M 117.167969 152.898438 C 117.046875 152.890625 116.921875 152.886719 116.800781 152.875 C 116.921875 152.886719 117.046875 152.890625 117.167969 152.898438 Z M 115.957031 152.796875 C 115.855469 152.785156 115.753906 152.777344 115.65625 152.769531 C 115.753906 152.777344 115.855469 152.785156 115.957031 152.796875 Z M 114.761719 152.65625 C 114.683594 152.644531 114.605469 152.636719 114.527344 152.625 C 114.605469 152.636719 114.683594 152.644531 114.761719 152.65625 Z M 119.125 152.984375 C 119.292969 152.988281 119.457031 152.984375 119.621094 152.984375 C 119.457031 152.984375 119.292969 152.988281 119.125 152.984375 Z M 129.222656 125.417969 C 129.25 125.449219 129.277344 125.476562 129.304688 125.507812 C 129.277344 125.476562 129.25 125.449219 129.222656 125.417969 Z M 129.8125 126.152344 C 129.9375 126.230469 130.0625 126.3125 130.1875 126.402344 C 130.0625 126.3125 129.9375 126.230469 129.8125 126.152344 Z M 116.484375 86.484375 C 122.261719 85.050781 128.089844 87.648438 131.019531 92.492188 C 130.894531 92.515625 130.769531 92.535156 130.644531 92.566406 C 123.164062 93.929688 118.832031 93.695312 117.335938 102.257812 C 116.480469 107.15625 116.714844 109.609375 115.691406 112.066406 C 111.433594 110.71875 107.953125 107.246094 106.800781 102.585938 C 105.039062 95.460938 109.378906 88.25 116.484375 86.484375 Z M 105.542969 148.101562 C 105.511719 148.230469 105.5 148.355469 105.492188 148.480469 C 105.5 148.355469 105.511719 148.230469 105.542969 148.101562 Z M 105.488281 148.59375 C 105.488281 148.6875 105.492188 148.777344 105.503906 148.867188 C 105.492188 148.777344 105.488281 148.6875 105.488281 148.59375 Z M 105.601562 149.332031 C 105.5625 149.21875 105.535156 149.097656 105.515625 148.976562 C 105.535156 149.097656 105.5625 149.21875 105.601562 149.332031 Z M 105.613281 149.359375 C 105.648438 149.464844 105.695312 149.566406 105.746094 149.664062 C 105.695312 149.566406 105.648438 149.464844 105.613281 149.359375 Z M 106.023438 150.078125 C 106.097656 150.167969 106.179688 150.253906 106.269531 150.332031 C 106.179688 150.253906 106.097656 150.167969 106.023438 150.078125 Z M 105.808594 149.769531 C 105.851562 149.84375 105.898438 149.914062 105.949219 149.980469 C 105.898438 149.914062 105.851562 149.84375 105.808594 149.769531 Z M 109.222656 151.492188 C 109.214844 151.492188 109.210938 151.492188 109.207031 151.488281 C 109.210938 151.492188 109.214844 151.492188 109.222656 151.492188 Z M 121.480469 152.941406 C 121.691406 152.929688 121.90625 152.910156 122.117188 152.894531 C 121.90625 152.910156 121.691406 152.929688 121.480469 152.941406 Z M 120.300781 152.984375 C 120.488281 152.980469 120.675781 152.96875 120.863281 152.964844 C 120.675781 152.96875 120.488281 152.980469 120.300781 152.984375 Z M 123.835938 152.722656 C 124.226562 152.667969 124.617188 152.609375 125.007812 152.542969 C 124.617188 152.609375 124.226562 152.667969 123.835938 152.722656 Z M 122.660156 152.851562 C 122.910156 152.832031 123.160156 152.796875 123.410156 152.769531 C 123.160156 152.796875 122.910156 152.832031 122.660156 152.851562 Z M 129.902344 141.386719 C 130.023438 140.976562 130.136719 140.566406 130.25 140.15625 L 130.957031 140.683594 Z M 142.773438 132.796875 C 142.789062 132.679688 142.804688 132.5625 142.824219 132.445312 L 142.824219 132.761719 L 144.0625 131.9375 Z M 142.773438 132.796875 " fill-opacity="1" fill-rule="nonzero"/></g><g clip-path="url(#372e0f9a4f)"><path fill="#eaeaea" d="M 110.886719 75.238281 L 107.128906 71.191406 C 105.511719 71.910156 103.976562 72.753906 102.542969 73.71875 L 103.960938 79.074219 C 102.503906 80.203125 101.1875 81.480469 100.015625 82.878906 L 94.738281 81.257812 C 93.714844 82.675781 92.808594 84.179688 92.035156 85.75 L 95.929688 89.675781 C 95.238281 91.363281 94.726562 93.125 94.414062 94.941406 L 89.023438 96.183594 C 88.84375 97.90625 88.816406 99.660156 88.933594 101.429688 L 94.261719 102.867188 C 94.382812 103.769531 94.554688 104.667969 94.777344 105.570312 C 95 106.46875 95.265625 107.34375 95.578125 108.199219 L 91.539062 111.964844 C 92.257812 113.582031 93.097656 115.117188 94.0625 116.558594 L 99.40625 115.136719 C 100.53125 116.597656 101.804688 117.917969 103.203125 119.089844 L 101.585938 124.378906 C 103 125.40625 104.5 126.3125 106.070312 127.085938 L 109.980469 123.183594 C 111.667969 123.875 113.425781 124.390625 115.242188 124.703125 L 116.480469 130.105469 C 118.199219 130.285156 119.949219 130.3125 121.714844 130.195312 L 123.152344 124.859375 C 124.050781 124.734375 124.945312 124.5625 125.84375 124.339844 C 126.746094 124.117188 127.613281 123.847656 128.46875 123.539062 L 132.226562 127.582031 C 133.84375 126.863281 135.375 126.019531 136.8125 125.054688 L 135.394531 119.699219 C 136.851562 118.574219 138.167969 117.296875 139.332031 115.898438 L 144.613281 117.515625 C 145.640625 116.097656 146.542969 114.59375 147.316406 113.023438 L 143.425781 109.105469 C 144.109375 107.414062 144.625 105.652344 144.941406 103.832031 L 150.328125 102.589844 C 150.511719 100.867188 150.539062 99.113281 150.417969 97.347656 L 145.09375 95.90625 C 144.96875 95.003906 144.800781 94.105469 144.578125 93.207031 C 144.355469 92.304688 144.085938 91.433594 143.777344 90.578125 L 147.816406 86.8125 C 147.09375 85.191406 146.253906 83.65625 145.292969 82.21875 L 139.949219 83.636719 C 138.824219 82.175781 137.546875 80.859375 136.152344 79.691406 L 137.769531 74.398438 C 136.351562 73.371094 134.851562 72.464844 133.285156 71.6875 L 129.371094 75.589844 C 127.6875 74.902344 125.925781 74.386719 124.113281 74.070312 L 122.871094 68.671875 C 121.152344 68.488281 119.40625 68.460938 117.640625 68.582031 L 116.203125 73.917969 C 115.300781 74.042969 114.40625 74.210938 113.503906 74.433594 C 112.609375 74.65625 111.738281 74.925781 110.886719 75.238281 Z M 116.484375 86.484375 C 123.597656 84.71875 130.792969 89.066406 132.554688 96.195312 C 134.3125 103.316406 129.976562 110.523438 122.863281 112.289062 C 115.757812 114.054688 108.5625 109.707031 106.800781 102.585938 C 105.039062 95.460938 109.378906 88.25 116.484375 86.484375 Z M 231.199219 71.117188 L 228.671875 68.398438 C 227.585938 68.882812 226.554688 69.449219 225.589844 70.097656 L 226.542969 73.699219 C 225.5625 74.457031 224.675781 75.316406 223.890625 76.257812 L 220.34375 75.167969 C 219.652344 76.121094 219.046875 77.132812 218.523438 78.1875 L 221.144531 80.828125 C 220.679688 81.960938 220.335938 83.144531 220.125 84.367188 L 216.5 85.203125 C 216.378906 86.363281 216.359375 87.542969 216.4375 88.730469 L 220.019531 89.699219 C 220.105469 90.304688 220.21875 90.910156 220.367188 91.515625 C 220.515625 92.121094 220.699219 92.707031 220.90625 93.28125 L 218.191406 95.8125 C 218.675781 96.902344 219.238281 97.9375 219.886719 98.902344 L 223.480469 97.949219 C 224.238281 98.929688 225.09375 99.816406 226.035156 100.605469 L 224.945312 104.160156 C 225.898438 104.851562 226.90625 105.460938 227.960938 105.980469 L 230.589844 103.359375 C 231.726562 103.824219 232.90625 104.167969 234.128906 104.378906 L 234.964844 108.011719 C 236.117188 108.132812 237.292969 108.152344 238.480469 108.070312 L 239.449219 104.484375 C 240.054688 104.398438 240.65625 104.285156 241.257812 104.136719 C 241.863281 103.984375 242.449219 103.804688 243.023438 103.59375 L 245.550781 106.316406 C 246.636719 105.832031 247.667969 105.265625 248.632812 104.617188 L 247.679688 101.015625 C 248.660156 100.257812 249.542969 99.398438 250.328125 98.457031 L 253.878906 99.546875 C 254.570312 98.59375 255.175781 97.582031 255.699219 96.527344 L 253.078125 93.890625 C 253.539062 92.753906 253.886719 91.570312 254.097656 90.347656 L 257.722656 89.511719 C 257.84375 88.351562 257.863281 87.171875 257.78125 85.984375 L 254.203125 85.015625 C 254.117188 84.410156 254.003906 83.804688 253.855469 83.203125 C 253.707031 82.59375 253.523438 82.007812 253.316406 81.433594 L 256.03125 78.902344 C 255.546875 77.8125 254.984375 76.777344 254.335938 75.8125 L 250.742188 76.765625 C 249.984375 75.785156 249.125 74.898438 248.1875 74.113281 L 249.277344 70.554688 C 248.324219 69.863281 247.316406 69.253906 246.261719 68.730469 L 243.628906 71.355469 C 242.496094 70.894531 241.3125 70.546875 240.09375 70.332031 L 239.257812 66.703125 C 238.101562 66.582031 236.925781 66.5625 235.742188 66.640625 L 234.773438 70.230469 C 234.167969 70.3125 233.566406 70.425781 232.960938 70.578125 C 232.359375 70.730469 231.773438 70.910156 231.199219 71.117188 Z M 234.964844 78.683594 C 239.746094 77.496094 244.585938 80.417969 245.769531 85.210938 C 246.953125 90 244.035156 94.847656 239.253906 96.035156 C 234.476562 97.21875 229.636719 94.296875 228.453125 89.507812 C 227.269531 84.714844 230.183594 79.867188 234.964844 78.683594 Z M 173.691406 194.914062 L 169.390625 191.207031 C 167.824219 192.128906 166.351562 193.167969 164.996094 194.316406 L 167.054688 199.628906 C 165.691406 200.945312 164.496094 202.40625 163.457031 203.96875 L 157.878906 202.914062 C 156.996094 204.484375 156.242188 206.121094 155.628906 207.816406 L 160.058594 211.378906 C 159.542969 213.183594 159.222656 215.042969 159.105469 216.9375 L 153.742188 218.824219 C 153.753906 220.605469 153.925781 222.398438 154.246094 224.191406 L 159.855469 225.054688 C 160.082031 225.960938 160.359375 226.859375 160.691406 227.757812 C 161.019531 228.648438 161.394531 229.511719 161.808594 230.347656 L 158.109375 234.660156 C 159.03125 236.230469 160.0625 237.707031 161.210938 239.066406 L 166.511719 237 C 167.828125 238.367188 169.28125 239.570312 170.84375 240.605469 L 169.792969 246.195312 C 171.355469 247.082031 172.992188 247.835938 174.683594 248.449219 L 178.234375 244.015625 C 180.039062 244.527344 181.894531 244.851562 183.785156 244.964844 L 185.667969 250.339844 C 187.445312 250.328125 189.234375 250.15625 191.027344 249.835938 L 191.886719 244.214844 C 192.792969 243.988281 193.6875 243.710938 194.578125 243.378906 C 195.472656 243.046875 196.332031 242.675781 197.167969 242.257812 L 201.472656 245.964844 C 203.039062 245.042969 204.511719 244.007812 205.867188 242.855469 L 203.808594 237.542969 C 205.167969 236.226562 206.371094 234.773438 207.402344 233.207031 L 212.980469 234.257812 C 213.867188 232.691406 214.621094 231.050781 215.230469 229.355469 L 210.808594 225.796875 C 211.316406 223.992188 211.640625 222.128906 211.753906 220.238281 L 217.121094 218.347656 C 217.109375 216.566406 216.9375 214.773438 216.613281 212.980469 L 211.007812 212.117188 C 210.777344 211.210938 210.503906 210.3125 210.175781 209.421875 C 209.84375 208.523438 209.46875 207.660156 209.054688 206.824219 L 212.753906 202.511719 C 211.832031 200.941406 210.796875 199.464844 209.652344 198.105469 L 204.351562 200.171875 C 203.035156 198.808594 201.578125 197.605469 200.023438 196.570312 L 201.070312 190.980469 C 199.507812 190.089844 197.871094 189.335938 196.179688 188.722656 L 192.621094 193.160156 C 190.824219 192.648438 188.96875 192.324219 187.078125 192.207031 L 185.195312 186.832031 C 183.417969 186.84375 181.628906 187.015625 179.835938 187.339844 L 178.976562 192.957031 C 178.070312 193.1875 177.175781 193.460938 176.28125 193.792969 C 175.390625 194.125 174.53125 194.5 173.691406 194.914062 Z M 180.699219 205.765625 C 187.765625 203.148438 195.613281 206.765625 198.226562 213.847656 C 200.835938 220.925781 197.226562 228.789062 190.160156 231.40625 C 183.097656 234.023438 175.25 230.40625 172.640625 223.328125 C 170.027344 216.25 173.636719 208.382812 180.699219 205.765625 Z M 111.855469 200.253906 C 111.84375 200.253906 111.832031 200.253906 111.816406 200.25 C 111.664062 200.230469 111.558594 200.089844 111.578125 199.9375 L 115.507812 170.117188 C 115.515625 170.054688 115.542969 169.996094 115.589844 169.949219 L 119.714844 166.023438 C 119.828125 165.914062 120.003906 165.917969 120.109375 166.03125 C 120.214844 166.144531 120.210938 166.320312 120.097656 166.425781 L 116.046875 170.285156 L 112.132812 200.011719 C 112.113281 200.152344 111.992188 200.253906 111.855469 200.253906 Z M 259.347656 179 C 259.339844 179 259.335938 179 259.328125 179 L 255.03125 178.730469 C 254.875 178.71875 254.757812 178.585938 254.769531 178.433594 C 254.777344 178.277344 254.90625 178.152344 255.0625 178.171875 L 259.363281 178.441406 C 259.519531 178.453125 259.632812 178.585938 259.625 178.738281 C 259.617188 178.886719 259.492188 179 259.347656 179 Z M 246.167969 174.117188 C 245.625 175.566406 244.414062 177.660156 241.917969 177.660156 C 241.765625 177.660156 241.640625 177.535156 241.640625 177.378906 C 241.640625 177.226562 241.765625 177.101562 241.917969 177.101562 C 244.023438 177.101562 245.09375 175.34375 245.601562 174.042969 C 245.789062 174.066406 245.976562 174.09375 246.167969 174.117188 Z M 274.410156 177.378906 C 274.410156 177.535156 274.285156 177.660156 274.128906 177.660156 C 271.671875 177.660156 270.460938 175.628906 269.90625 174.183594 C 270.097656 174.160156 270.28125 174.132812 270.472656 174.105469 C 270.988281 175.398438 272.0625 177.101562 274.128906 177.101562 C 274.285156 177.101562 274.410156 177.226562 274.410156 177.378906 Z M 274.410156 177.378906 " fill-opacity="1" fill-rule="nonzero"/></g><path fill="#5fa9e0" d="M 92.191406 251.644531 C 92.191406 251.644531 93.167969 252.613281 94.765625 251.644531 C 96.546875 250.558594 99.320312 249.355469 99.71875 251.757812 C 99.75 256.367188 104.8125 256.429688 104.964844 260.773438 L 91.394531 260.773438 C 91.140625 257.148438 91.753906 254.9375 92.191406 251.644531 M 112.992188 252.363281 C 112.992188 252.363281 111.613281 255.941406 112.242188 260.773438 L 135.179688 260.769531 C 135.179688 260.769531 135.738281 258.320312 132.597656 257.082031 C 129.777344 255.972656 126.164062 255.113281 122.078125 250.671875 C 118.425781 254.441406 112.992188 252.363281 112.992188 252.363281 M 142.355469 135.324219 L 130.402344 126.570312 C 130.335938 126.519531 130.253906 126.453125 130.183594 126.402344 C 130.0625 126.3125 129.9375 126.230469 129.808594 126.152344 C 127.765625 123.320312 124.34375 121.492188 120.554688 121.492188 C 115.265625 121.492188 110.699219 125.210938 109.617188 130.398438 L 105.542969 148.101562 C 105.28125 149.230469 105.910156 150.367188 106.996094 150.765625 C 111.996094 152.605469 118.734375 153.636719 125.007812 152.542969 C 125.8125 152.402344 126.472656 151.835938 126.75 151.0625 C 127.5 148.976562 129.050781 144.515625 130.25 140.15625 L 133.511719 142.578125 Z M 226.273438 200.574219 C 222.890625 200.574219 220.148438 197.824219 220.148438 194.433594 C 220.148438 191.046875 222.890625 188.296875 226.273438 188.296875 C 227.105469 188.296875 227.890625 188.46875 228.613281 188.769531 L 228.613281 177.949219 C 228.613281 176.617188 227.535156 175.535156 226.203125 175.535156 L 214.640625 175.535156 C 215.097656 174.671875 215.363281 173.6875 215.363281 172.640625 C 215.363281 169.253906 212.621094 166.503906 209.238281 166.503906 C 205.855469 166.503906 203.113281 169.253906 203.113281 172.640625 C 203.113281 173.6875 203.375 174.671875 203.835938 175.535156 L 192.742188 175.535156 C 191.410156 175.535156 190.332031 176.617188 190.332031 177.949219 L 190.332031 211.480469 C 190.332031 212.8125 191.410156 213.894531 192.742188 213.894531 L 226.203125 213.894531 C 227.535156 213.894531 228.613281 212.8125 228.613281 211.480469 L 228.613281 200.101562 C 227.890625 200.402344 227.105469 200.574219 226.273438 200.574219 Z M 283.691406 158.035156 C 282.804688 149.234375 282.53125 138.828125 282.375 136.769531 C 282.164062 134.339844 281.960938 131.910156 281.660156 129.488281 C 281.375 127.203125 279.921875 125.359375 277.976562 124.464844 C 277.980469 124.445312 277.980469 124.433594 277.980469 124.433594 C 273.480469 122.484375 269.078125 121.195312 264.71875 120.570312 L 264.792969 121.535156 C 265 124.5625 262.832031 127.238281 259.617188 127.457031 C 256.40625 127.675781 253.628906 125.398438 253.417969 122.371094 L 253.4375 120.4375 C 249.210938 120.957031 244.972656 122.113281 240.660156 123.914062 C 240.65625 123.917969 240.648438 123.921875 240.640625 123.925781 C 239.121094 124.453125 237.808594 125.574219 237.078125 127.160156 L 228.210938 142.777344 L 237.746094 156.167969 L 241.570312 147.523438 C 241.832031 150.773438 242.003906 153.542969 242.003906 155.109375 C 242.003906 159.882812 241.28125 168.292969 241.28125 171.785156 C 241.28125 172.714844 241.953125 173.5 242.871094 173.648438 C 252.71875 175.246094 263.886719 175.292969 273.476562 173.664062 C 274.386719 173.507812 275.054688 172.726562 275.054688 171.800781 C 275.054688 169.308594 274.683594 164.289062 274.472656 159.882812 Z M 141.582031 106.398438 C 140.546875 106.398438 139.648438 107.101562 139.1875 108.136719 C 138.773438 107.945312 138.347656 107.953125 137.933594 108.15625 C 137.476562 107.109375 136.570312 106.398438 135.53125 106.398438 C 134.035156 106.398438 132.816406 107.878906 132.816406 109.703125 C 132.816406 111.527344 134.035156 113.007812 135.53125 113.007812 C 137.03125 113.007812 138.25 111.527344 138.25 109.703125 C 138.25 109.324219 138.195312 108.957031 138.097656 108.617188 C 138.410156 108.445312 138.710938 108.441406 139.023438 108.597656 C 138.921875 108.945312 138.863281 109.316406 138.863281 109.703125 C 138.863281 111.527344 140.082031 113.007812 141.582031 113.007812 C 143.078125 113.007812 144.296875 111.527344 144.296875 109.703125 C 144.296875 107.878906 143.078125 106.398438 141.582031 106.398438 Z M 135.53125 112.53125 C 134.296875 112.53125 133.292969 111.261719 133.292969 109.703125 C 133.292969 108.144531 134.296875 106.875 135.53125 106.875 C 136.769531 106.875 137.773438 108.144531 137.773438 109.703125 C 137.773438 111.261719 136.769531 112.53125 135.53125 112.53125 Z M 141.582031 112.53125 C 140.34375 112.53125 139.339844 111.261719 139.339844 109.703125 C 139.339844 108.144531 140.34375 106.875 141.582031 106.875 C 142.816406 106.875 143.820312 108.144531 143.820312 109.703125 C 143.820312 111.261719 142.816406 112.53125 141.582031 112.53125 Z M 141.582031 112.53125 " fill-opacity="1" fill-rule="evenodd"/><path fill="#f5c0a2" d="M 157.941406 115.882812 L 157.058594 117.480469 C 156.710938 119.109375 156.265625 120.941406 155.902344 122.601562 C 155.480469 124.527344 153.648438 125.433594 151.136719 125.058594 C 148.273438 124.628906 147.542969 123.304688 147.539062 123.300781 C 144.957031 120.34375 145.351562 117.484375 144.839844 115.328125 C 144.617188 114.382812 144.554688 114.148438 145.007812 113.96875 C 145.507812 113.769531 146.667969 114.179688 147.53125 116.023438 C 147.792969 116.574219 148.058594 117.089844 148.273438 117.492188 C 148.546875 115.527344 148.757812 114.269531 148.757812 114.269531 L 148.890625 114.28125 C 149.050781 114.003906 149.320312 113.789062 149.664062 113.726562 C 150.234375 113.621094 150.765625 113.953125 150.953125 114.464844 L 151.703125 114.53125 C 151.707031 114.472656 151.710938 114.414062 151.714844 114.375 C 151.777344 113.722656 152.316406 113.21875 152.96875 113.277344 C 153.59375 113.332031 154.042969 113.871094 154.019531 114.472656 C 154.242188 113.953125 154.78125 113.640625 155.34375 113.777344 C 155.839844 113.898438 156.171875 114.324219 156.210938 114.796875 C 156.472656 114.484375 156.886719 114.332031 157.300781 114.457031 C 157.898438 114.640625 158.203125 115.3125 157.941406 115.882812 Z M 269.769531 249.425781 L 262.03125 249.425781 C 262.027344 249.574219 262.019531 249.714844 262.019531 249.867188 C 262.019531 252.570312 261.859375 254.636719 261.730469 257.515625 C 262.40625 257.78125 263.289062 257.746094 264.257812 256.707031 C 266.210938 254.617188 268.3125 253.625 270.402344 254.324219 C 269.804688 252.703125 269.710938 251.066406 269.769531 249.425781 Z M 92.191406 251.644531 C 92.191406 251.644531 93.167969 252.613281 94.765625 251.644531 C 96.433594 250.628906 98.972656 249.507812 99.613281 251.34375 C 99.636719 250.191406 99.726562 248.90625 99.839844 247.667969 L 92.230469 247.667969 C 92.234375 248.886719 92.222656 250.238281 92.191406 251.644531 Z M 112.992188 252.363281 C 112.992188 252.363281 118.398438 254.429688 122.046875 250.699219 C 121.984375 249.792969 121.96875 248.753906 121.976562 247.667969 L 113.398438 247.667969 C 113.421875 249.320312 113.320312 250.929688 112.992188 252.363281 Z M 159.792969 130.296875 C 158.289062 130.296875 158.339844 130.324219 153.625 130.304688 C 153.625 130.304688 153.539062 130.300781 153.386719 130.300781 C 153.222656 130.300781 153.050781 130.300781 152.871094 130.300781 L 152.875 130.308594 C 151.457031 130.332031 148.292969 130.464844 145.59375 131.148438 C 145.089844 131.273438 144.628906 131.515625 144.238281 131.832031 C 144.179688 131.867188 144.121094 131.898438 144.0625 131.9375 L 129.597656 141.589844 L 127.265625 137.574219 L 119.4375 142.617188 L 124.371094 150.210938 L 124.550781 150.488281 C 124.636719 150.613281 124.726562 150.738281 124.824219 150.859375 C 126.300781 152.667969 128.964844 152.933594 130.773438 151.449219 L 147.371094 137.816406 C 148.410156 137.949219 149.746094 138.0625 151.066406 138.042969 L 152.007812 138.785156 C 152.199219 138.9375 152.441406 139.003906 152.679688 138.976562 L 154.296875 138.785156 C 154.597656 138.75 154.855469 138.554688 154.96875 138.273438 L 156.289062 135.082031 C 156.523438 134.515625 156.375 133.863281 155.921875 133.453125 L 154.953125 132.574219 C 156.023438 132.449219 158.265625 132.183594 159.28125 131.992188 C 160.457031 131.765625 161.199219 130.296875 159.792969 130.296875 Z M 228.632812 143.367188 L 228.210938 143.796875 L 219.542969 132.527344 L 196.195312 132.527344 C 196.15625 132.96875 196.464844 133.375 197.160156 133.480469 C 197.394531 133.515625 197.6875 133.546875 198.015625 133.578125 C 197.769531 134.074219 197.949219 134.59375 198.667969 134.675781 C 198.980469 134.710938 199.445312 134.761719 200 134.820312 C 200.132812 135.003906 200.339844 135.164062 200.625 135.25 C 201.890625 135.632812 204.308594 136.167969 205.242188 136.371094 C 205.492188 136.425781 205.742188 136.460938 205.996094 136.484375 C 205.996094 136.484375 210.859375 136.890625 211.589844 136.925781 L 211.605469 136.929688 C 211.769531 136.9375 211.941406 136.941406 212.109375 136.941406 L 222.464844 155.71875 C 224.222656 158.613281 227.992188 159.535156 230.878906 157.773438 C 231.375 157.46875 233.453125 155.339844 235.566406 153.109375 Z M 285.96875 186.625 C 285.96875 186.617188 285.972656 186.613281 285.972656 186.609375 C 285.957031 186.261719 285.875 185.351562 285.761719 184.207031 C 285.460938 181.203125 284.953125 176.609375 284.953125 176.609375 L 282.898438 158.191406 L 274.472656 159.882812 C 274.550781 161.492188 274.648438 163.183594 274.742188 164.804688 C 276.15625 169.871094 277.820312 175.8125 278.339844 177.660156 C 278.242188 177.792969 278.15625 177.929688 278.085938 178.058594 C 277.144531 179.800781 276.992188 180.949219 277.296875 183.554688 C 277.210938 183.515625 277.121094 183.488281 277.023438 183.476562 C 276.402344 183.402344 275.859375 183.902344 275.882812 184.53125 L 276.015625 187.816406 C 276.027344 188.121094 276.175781 188.40625 276.421875 188.589844 L 279.011719 190.550781 L 279.683594 191.0625 C 280.046875 191.335938 280.546875 191.335938 280.910156 191.0625 L 285.570312 187.535156 C 285.839844 187.335938 285.988281 187.015625 285.976562 186.679688 Z M 246.96875 256.464844 C 246.96875 256.46875 246.972656 256.46875 246.972656 256.46875 C 246.960938 254.308594 247.261719 251.414062 247.507812 249.425781 L 239.25 249.425781 C 239.066406 251.734375 238.726562 253.292969 238.214844 254.59375 C 241.035156 258.324219 244.832031 257.558594 246.96875 256.464844 Z M 265.980469 107.046875 C 265.445312 107 265.066406 108.160156 264.816406 109.316406 C 264.707031 109.253906 264.582031 109.210938 264.445312 109.207031 L 264.445312 109.210938 C 264.445312 109.210938 263.910156 104.992188 264.941406 100.703125 C 264.03125 101.605469 260.707031 101.902344 258.300781 101.304688 C 255.367188 100.578125 253.660156 99.550781 251.726562 99.785156 C 250.519531 103.53125 250.480469 107.144531 250.480469 107.144531 L 250.566406 112.179688 C 250.605469 114.457031 251.730469 116.515625 253.460938 117.769531 L 253.417969 122.371094 C 253.628906 125.398438 256.40625 127.675781 259.617188 127.457031 C 262.832031 127.238281 265 124.5625 264.792969 121.535156 L 264.167969 113.226562 L 264.539062 112.09375 C 264.695312 112.484375 265.070312 112.726562 265.472656 112.621094 C 266.683594 112.316406 267.542969 111.324219 267.648438 110.089844 C 267.785156 108.496094 267.035156 107.136719 265.980469 107.046875 Z M 141.582031 113.007812 C 140.082031 113.007812 138.863281 111.523438 138.863281 109.703125 C 138.863281 109.3125 138.921875 108.945312 139.023438 108.597656 C 138.710938 108.4375 138.410156 108.445312 138.09375 108.617188 C 138.191406 108.957031 138.25 109.320312 138.25 109.703125 C 138.25 111.523438 137.03125 113.007812 135.53125 113.007812 C 134.035156 113.007812 132.816406 111.523438 132.816406 109.703125 C 132.816406 107.878906 134.035156 106.398438 135.53125 106.398438 C 136.570312 106.398438 137.472656 107.109375 137.929688 108.15625 C 138.34375 107.949219 138.773438 107.945312 139.1875 108.136719 C 139.648438 107.101562 140.546875 106.394531 141.578125 106.394531 C 141.855469 106.394531 142.121094 106.445312 142.371094 106.539062 C 142.378906 105.644531 142.21875 104.78125 141.925781 103.972656 C 141.65625 103.953125 141.382812 103.925781 141.113281 103.886719 C 138.574219 103.527344 134.5625 102.191406 131.890625 100.574219 C 130.289062 103.230469 132.472656 108.574219 129 109.707031 C 129.101562 108.46875 128.957031 107.003906 127.765625 106.710938 C 126.410156 106.375 125.574219 107.371094 125.199219 108.878906 C 124.910156 110.050781 125.648438 111.292969 127.058594 112.054688 C 127.539062 112.316406 128.105469 112.234375 128.433594 111.925781 L 124.289062 122.109375 C 126.53125 122.867188 128.464844 124.292969 129.804688 126.148438 C 129.933594 126.230469 130.0625 126.308594 130.183594 126.402344 C 130.253906 126.453125 130.335938 126.515625 130.402344 126.570312 L 131.507812 127.480469 L 134.40625 120.140625 C 135.117188 120.257812 135.859375 120.253906 136.605469 120.097656 C 139.171875 119.5625 141.011719 117.445312 141.335938 114.980469 L 141.589844 113.007812 C 141.585938 113.007812 141.582031 113.007812 141.582031 113.007812 Z M 141.582031 106.875 C 140.34375 106.875 139.339844 108.144531 139.339844 109.703125 C 139.339844 111.261719 140.34375 112.53125 141.582031 112.53125 C 141.605469 112.53125 141.628906 112.527344 141.652344 112.523438 L 142.3125 107.417969 C 142.328125 107.292969 142.339844 107.171875 142.347656 107.050781 C 142.109375 106.9375 141.851562 106.875 141.582031 106.875 Z M 135.53125 106.875 C 134.296875 106.875 133.292969 108.144531 133.292969 109.703125 C 133.292969 111.261719 134.296875 112.53125 135.53125 112.53125 C 136.769531 112.53125 137.773438 111.261719 137.773438 109.703125 C 137.773438 108.144531 136.769531 106.875 135.53125 106.875 Z M 135.53125 106.875 " fill-opacity="1" fill-rule="evenodd"/><path fill="#293237" d="M 104.257812 258.601562 L 91.292969 258.601562 C 91.164062 258.601562 91.058594 258.703125 91.058594 258.835938 C 91.058594 258.964844 91.164062 259.070312 91.292969 259.070312 L 104.257812 259.070312 C 104.386719 259.070312 104.492188 258.964844 104.492188 258.835938 C 104.492188 258.703125 104.386719 258.601562 104.257812 258.601562 Z M 104.257812 258.601562 " fill-opacity="1" fill-rule="nonzero"/><path fill="#293237" d="M 153.722656 135.851562 L 155.542969 136.734375 C 155.574219 136.75 155.609375 136.757812 155.644531 136.757812 C 155.730469 136.757812 155.816406 136.710938 155.855469 136.625 C 155.910156 136.511719 155.863281 136.371094 155.746094 136.3125 L 153.925781 135.429688 C 153.8125 135.371094 153.671875 135.421875 153.613281 135.535156 C 153.558594 135.652344 153.605469 135.792969 153.722656 135.851562 Z M 153.722656 135.851562 " fill-opacity="1" fill-rule="nonzero"/><path fill="#293237" d="M 134.816406 258.601562 L 112.089844 258.601562 C 111.957031 258.601562 111.855469 258.703125 111.855469 258.835938 C 111.855469 258.964844 111.957031 259.070312 112.089844 259.070312 L 134.816406 259.070312 C 134.949219 259.070312 135.050781 258.964844 135.050781 258.835938 C 135.050781 258.703125 134.949219 258.601562 134.816406 258.601562 Z M 134.816406 258.601562 " fill-opacity="1" fill-rule="nonzero"/><path fill="#293237" d="M 96.558594 169.398438 L 97.019531 193.878906 C 97.070312 197.257812 96.507812 200.621094 95.347656 203.792969 C 90.496094 217.058594 91.410156 238.40625 91.410156 247.667969 L 100.769531 247.667969 L 110.941406 203.605469 L 112.164062 195.242188 C 112.167969 195.292969 112.171875 195.34375 112.175781 195.394531 L 115.507812 170.117188 C 115.515625 170.050781 115.542969 169.992188 115.589844 169.949219 L 119.714844 166.023438 C 119.828125 165.914062 120.003906 165.917969 120.109375 166.03125 C 120.214844 166.144531 120.210938 166.320312 120.097656 166.425781 L 116.046875 170.285156 L 112.316406 198.59375 C 112.289062 200.363281 112.089844 202.105469 111.710938 203.792969 C 108.730469 217.058594 111.613281 238.40625 112.917969 247.664062 L 122.277344 247.664062 L 126.308594 203.605469 L 125.363281 165.324219 L 125.363281 152.445312 C 125.25 152.484375 125.128906 152.519531 125.007812 152.542969 C 118.847656 153.617188 112.242188 152.640625 107.273438 150.863281 L 105.808594 151.039062 C 105.761719 150.996094 105.71875 150.945312 105.667969 150.902344 C 102.691406 153.78125 96.558594 160.761719 96.558594 169.398438 Z M 96.558594 169.398438 " fill-opacity="1" fill-rule="nonzero"/><path fill="#293237" d="M 127.695312 137.308594 L 122.53125 128.425781 C 122.46875 128.3125 122.324219 128.273438 122.214844 128.339844 C 122.101562 128.40625 122.0625 128.546875 122.128906 128.660156 L 127.292969 137.542969 C 127.335938 137.617188 127.414062 137.660156 127.492188 137.660156 C 127.535156 137.660156 127.574219 137.648438 127.613281 137.628906 C 127.722656 137.5625 127.761719 137.417969 127.695312 137.308594 Z M 127.695312 137.308594 " fill-opacity="1" fill-rule="nonzero"/><path fill="#293237" d="M 278.339844 177.902344 C 278.363281 177.902344 278.386719 177.898438 278.410156 177.890625 L 279.347656 177.605469 C 279.472656 177.566406 279.542969 177.4375 279.503906 177.3125 C 279.464844 177.1875 279.339844 177.117188 279.210938 177.15625 L 278.273438 177.445312 C 278.148438 177.480469 278.078125 177.613281 278.117188 177.738281 C 278.148438 177.835938 278.242188 177.902344 278.339844 177.902344 Z M 278.339844 177.902344 " fill-opacity="1" fill-rule="nonzero"/><path fill="#293237" d="M 274.644531 159.78125 C 274.648438 159.78125 274.652344 159.78125 274.652344 159.78125 C 274.785156 159.773438 274.882812 159.664062 274.878906 159.535156 L 274.519531 151.402344 L 276.96875 133.65625 C 276.988281 133.527344 276.898438 133.410156 276.769531 133.390625 C 276.640625 133.375 276.523438 133.464844 276.503906 133.59375 L 274.054688 151.378906 L 274.410156 159.554688 C 274.414062 159.679688 274.519531 159.78125 274.644531 159.78125 Z M 274.644531 159.78125 " fill-opacity="1" fill-rule="nonzero"/><path fill="#293237" d="M 251.726562 99.785156 C 253.660156 99.550781 255.367188 100.578125 258.300781 101.304688 C 260.707031 101.902344 264.03125 101.605469 264.941406 100.703125 C 263.910156 104.992188 264.445312 109.207031 264.445312 109.207031 C 264.582031 109.210938 264.707031 109.25 264.816406 109.316406 C 265.066406 108.15625 265.445312 107 265.980469 107.046875 C 267.035156 107.136719 267.785156 108.496094 267.648438 110.085938 C 267.546875 111.324219 266.683594 112.316406 265.476562 112.621094 C 265.070312 112.726562 264.695312 112.480469 264.539062 112.09375 L 264.167969 113.226562 L 264.183594 113.460938 C 265.421875 113.242188 270.289062 112.097656 269.738281 107.664062 C 269.738281 107.664062 273.574219 103.253906 269.769531 99.820312 C 269.8125 95.832031 267.664062 93.894531 263.667969 93.703125 C 263.667969 93.703125 254.628906 92.933594 252.621094 92.808594 C 249.757812 92.632812 249.640625 95.113281 250.492188 98.46875 C 250.539062 98.664062 250.613281 98.828125 250.695312 98.980469 C 250.183594 100 249.847656 101.128906 249.75 102.332031 C 249.621094 103.90625 249.898438 105.414062 250.492188 106.761719 C 250.539062 105.738281 250.753906 102.808594 251.726562 99.785156 Z M 251.726562 99.785156 " fill-opacity="1" fill-rule="nonzero"/><path fill="#293237" d="M 241.648438 149.292969 C 241.65625 149.292969 241.664062 149.292969 241.671875 149.292969 C 241.800781 149.28125 241.894531 149.164062 241.882812 149.035156 L 240.464844 133.800781 C 240.453125 133.671875 240.347656 133.582031 240.210938 133.589844 C 240.082031 133.601562 239.988281 133.714844 240 133.84375 L 241.417969 149.078125 C 241.429688 149.199219 241.53125 149.292969 241.648438 149.292969 Z M 241.648438 149.292969 " fill-opacity="1" fill-rule="nonzero"/><path fill="#293237" d="M 241.917969 177.101562 C 244.019531 177.101562 245.09375 175.34375 245.601562 174.042969 C 244.683594 173.921875 243.769531 173.792969 242.871094 173.648438 C 242.546875 173.597656 242.257812 173.460938 242.011719 173.273438 L 241.871094 177.109375 C 241.886719 177.105469 241.902344 177.101562 241.917969 177.101562 Z M 241.917969 177.101562 " fill-opacity="1" fill-rule="nonzero"/><path fill="#293237" d="M 154.101562 134.3125 L 156.035156 135.484375 C 156.074219 135.507812 156.113281 135.515625 156.15625 135.515625 C 156.234375 135.515625 156.3125 135.476562 156.355469 135.402344 C 156.421875 135.292969 156.386719 135.148438 156.277344 135.082031 L 154.34375 133.910156 C 154.234375 133.84375 154.089844 133.878906 154.023438 133.992188 C 153.957031 134.101562 153.992188 134.246094 154.101562 134.3125 Z M 154.101562 134.3125 " fill-opacity="1" fill-rule="nonzero"/><g clip-path="url(#37777216c0)"><path fill="#293237" d="M 224.871094 264.375 C 224.804688 264.875 225.199219 265.324219 225.703125 265.324219 L 246.871094 265.324219 C 247.3125 265.324219 247.675781 264.984375 247.710938 264.546875 C 247.734375 264.1875 247.761719 263.714844 247.773438 263.171875 L 230.371094 263.171875 L 228.921875 260.902344 C 228.414062 261.148438 227.925781 261.375 227.476562 261.570312 C 225.496094 262.429688 224.996094 263.417969 224.871094 264.375 Z M 224.871094 264.375 " fill-opacity="1" fill-rule="nonzero"/></g><path fill="#293237" d="M 238.214844 254.59375 C 236.570312 256.652344 232.261719 259.277344 228.921875 260.902344 L 230.371094 263.171875 L 247.773438 263.171875 C 247.816406 261.378906 247.714844 258.757812 246.96875 256.464844 C 244.832031 257.558594 241.035156 258.324219 238.214844 254.59375 Z M 238.214844 254.59375 " fill-opacity="1" fill-rule="nonzero"/><path fill="#293237" d="M 273.9375 230.289062 C 274.9375 222.78125 273.457031 211.746094 273.457031 211.746094 L 274.125 177.660156 C 271.671875 177.65625 270.457031 175.625 269.90625 174.183594 C 270.097656 174.160156 270.28125 174.132812 270.472656 174.105469 C 270.988281 175.398438 272.0625 177.101562 274.128906 177.101562 C 274.132812 177.101562 274.132812 177.101562 274.136719 177.101562 L 274.207031 173.363281 C 273.992188 173.507812 273.746094 173.617188 273.476562 173.660156 C 264.917969 175.117188 255.105469 175.234375 246.089844 174.105469 C 246.117188 174.109375 246.140625 174.113281 246.167969 174.117188 C 245.625 175.566406 244.410156 177.660156 241.917969 177.660156 C 241.894531 177.660156 241.875 177.652344 241.851562 177.644531 L 240.613281 211.382812 L 238.996094 249.425781 L 248.457031 249.425781 C 250.515625 242.578125 255.296875 225.691406 252.964844 213.558594 L 258.066406 178.921875 L 255.03125 178.726562 C 254.875 178.71875 254.757812 178.585938 254.769531 178.433594 C 254.777344 178.277344 254.90625 178.152344 255.0625 178.171875 L 259.363281 178.441406 C 259.515625 178.453125 259.632812 178.585938 259.625 178.738281 C 259.617188 178.882812 259.496094 178.996094 259.355469 179 L 261.5 249.425781 L 270.941406 249.425781 C 271.734375 244.710938 273.222656 235.660156 273.9375 230.289062 Z M 273.9375 230.289062 " fill-opacity="1" fill-rule="nonzero"/><path fill="#293237" d="M 282.304688 181.386719 C 282.183594 181.378906 282.0625 181.472656 282.050781 181.601562 L 281.792969 184.632812 L 280.101562 190.324219 C 280.0625 190.453125 279.960938 190.554688 279.832031 190.597656 C 279.707031 190.636719 279.582031 190.613281 279.480469 190.535156 C 279.101562 190.238281 278.882812 189.746094 278.832031 189.078125 C 278.6875 187.21875 278.78125 185.011719 278.78125 184.988281 C 278.785156 184.890625 278.730469 184.804688 278.640625 184.761719 C 278.613281 184.75 277.902344 184.421875 277.605469 183.40625 C 277.570312 183.28125 277.441406 183.210938 277.316406 183.246094 C 277.195312 183.28125 277.121094 183.410156 277.160156 183.535156 C 277.4375 184.488281 278.03125 184.945312 278.308594 185.113281 C 278.289062 185.644531 278.238281 187.507812 278.363281 189.117188 C 278.425781 189.921875 278.707031 190.523438 279.191406 190.90625 C 279.34375 191.023438 279.527344 191.085938 279.714844 191.085938 C 279.800781 191.085938 279.890625 191.070312 279.976562 191.042969 C 280.253906 190.957031 280.46875 190.734375 280.550781 190.457031 L 282.246094 184.742188 C 282.253906 184.726562 282.253906 184.710938 282.257812 184.695312 L 282.519531 181.640625 C 282.53125 181.511719 282.433594 181.398438 282.304688 181.386719 Z M 282.304688 181.386719 " fill-opacity="1" fill-rule="nonzero"/><g clip-path="url(#548241b05a)"><path fill="#293237" d="M 275.035156 259.820312 C 275.035156 259.820312 275.035156 259.820312 275.039062 259.820312 C 274.988281 259.777344 274.933594 259.730469 274.882812 259.6875 C 274.464844 259.304688 274.03125 258.925781 273.601562 258.542969 C 273.503906 258.453125 273.402344 258.359375 273.304688 258.269531 C 273.199219 258.171875 273.097656 258.074219 272.992188 257.976562 C 272.886719 257.875 272.78125 257.773438 272.679688 257.671875 C 272.585938 257.578125 272.492188 257.484375 272.402344 257.390625 C 272.296875 257.28125 272.195312 257.167969 272.09375 257.054688 C 272.007812 256.960938 271.925781 256.867188 271.84375 256.769531 C 271.742188 256.648438 271.644531 256.519531 271.546875 256.390625 C 271.476562 256.300781 271.40625 256.207031 271.339844 256.113281 C 271.234375 255.96875 271.140625 255.8125 271.046875 255.660156 C 270.996094 255.574219 270.941406 255.496094 270.894531 255.410156 C 270.757812 255.167969 270.636719 254.917969 270.527344 254.65625 C 270.527344 254.652344 270.523438 254.652344 270.523438 254.648438 C 270.480469 254.539062 270.445312 254.429688 270.402344 254.324219 C 269.882812 254.148438 269.363281 254.082031 268.839844 254.109375 C 268.578125 254.121094 268.316406 254.160156 268.054688 254.21875 C 266.757812 254.523438 265.480469 255.402344 264.261719 256.707031 C 263.519531 257.5 262.832031 257.707031 262.246094 257.640625 C 262.0625 257.621094 261.890625 257.578125 261.730469 257.511719 C 261.722656 257.730469 261.710938 257.949219 261.703125 258.175781 C 261.699219 258.257812 261.695312 258.347656 261.691406 258.433594 C 261.6875 258.558594 261.683594 258.6875 261.679688 258.820312 C 261.671875 258.957031 261.667969 259.101562 261.664062 259.242188 C 261.660156 259.328125 261.65625 259.410156 261.652344 259.492188 C 261.648438 259.664062 261.644531 259.839844 261.636719 260.015625 C 261.636719 260.066406 261.632812 260.117188 261.632812 260.167969 C 261.597656 261.421875 261.570312 262.828125 261.5625 264.476562 C 261.558594 264.941406 261.9375 265.324219 262.402344 265.324219 L 277.140625 265.324219 C 277.652344 265.324219 278.054688 264.863281 277.972656 264.355469 C 277.660156 262.445312 276.433594 261.097656 275.035156 259.820312 Z M 275.035156 259.820312 " fill-opacity="1" fill-rule="nonzero"/></g><path fill="#293237" d="M 113.714844 135.28125 C 113.609375 135.351562 113.578125 135.496094 113.648438 135.605469 L 118.570312 143.179688 C 118.613281 143.246094 118.691406 143.285156 118.765625 143.285156 C 118.808594 143.285156 118.855469 143.273438 118.894531 143.246094 C 119 143.175781 119.03125 143.03125 118.960938 142.925781 L 114.039062 135.351562 C 113.96875 135.242188 113.824219 135.210938 113.714844 135.28125 Z M 113.714844 135.28125 " fill-opacity="1" fill-rule="nonzero"/><path fill="#293237" d="M 179.105469 167.535156 L 167.542969 167.535156 C 168.003906 166.671875 168.265625 165.6875 168.265625 164.644531 C 168.265625 161.253906 165.523438 158.503906 162.140625 158.503906 C 158.757812 158.503906 156.015625 161.253906 156.015625 164.644531 C 156.015625 165.6875 156.277344 166.671875 156.738281 167.535156 L 145.644531 167.535156 C 144.3125 167.535156 143.234375 168.617188 143.234375 169.949219 L 143.234375 203.480469 C 143.234375 204.816406 144.3125 205.898438 145.644531 205.898438 L 179.105469 205.898438 C 180.4375 205.898438 181.515625 204.816406 181.515625 203.480469 L 181.515625 169.949219 C 181.515625 168.617188 180.4375 167.535156 179.105469 167.535156 Z M 179.105469 167.535156 " fill-opacity="1" fill-rule="nonzero"/><path fill="#293237" d="M 144.738281 121.335938 C 143.832031 111.535156 145.914062 109.957031 146.320312 103.234375 C 146.726562 96.507812 139.800781 90.582031 130.644531 92.566406 C 123.164062 93.929688 118.832031 93.695312 117.335938 102.257812 C 115.84375 110.820312 117.675781 111.910156 110.304688 118.617188 C 102.972656 125.292969 95.667969 141.546875 105.667969 150.902344 C 105.886719 150.691406 106.089844 150.5 106.269531 150.335938 C 105.652344 149.792969 105.347656 148.945312 105.542969 148.101562 L 109.617188 130.398438 C 110.699219 125.210938 115.265625 121.492188 120.554688 121.492188 C 121.878906 121.492188 123.160156 121.722656 124.351562 122.132812 C 124.332031 122.125 124.308594 122.117188 124.289062 122.109375 L 128.433594 111.929688 C 128.105469 112.238281 127.539062 112.316406 127.058594 112.058594 C 125.648438 111.296875 124.910156 110.050781 125.199219 108.878906 C 125.574219 107.375 126.410156 106.375 127.765625 106.710938 C 128.957031 107.003906 129.101562 108.46875 129 109.707031 C 132.472656 108.574219 130.289062 103.234375 131.890625 100.574219 C 134.5625 102.191406 138.574219 103.527344 141.113281 103.886719 C 141.382812 103.925781 141.65625 103.953125 141.925781 103.976562 C 142.316406 105.042969 142.46875 106.214844 142.3125 107.417969 L 141.335938 114.984375 C 141.011719 117.449219 139.171875 119.5625 136.605469 120.101562 C 135.859375 120.257812 135.117188 120.261719 134.40625 120.144531 L 131.507812 127.484375 L 140.398438 134.410156 L 142.746094 132.96875 C 143.199219 129.351562 145.164062 125.914062 144.738281 121.335938 Z M 144.738281 121.335938 " fill-opacity="1" fill-rule="nonzero"/><path fill="#293237" d="M 227.46875 130.125 L 227.46875 96.808594 C 227.46875 95.480469 226.398438 94.40625 225.074219 94.40625 L 214.734375 94.40625 C 215.183594 95.253906 215.441406 96.222656 215.441406 97.25 C 215.441406 100.601562 212.730469 103.320312 209.382812 103.320312 C 206.039062 103.320312 203.328125 100.601562 203.328125 97.25 C 203.328125 96.222656 203.585938 95.253906 204.035156 94.40625 L 191.824219 94.40625 C 190.503906 94.40625 189.429688 95.480469 189.429688 96.808594 L 189.429688 107.867188 C 190.300781 107.519531 191.269531 107.367188 192.285156 107.476562 C 195.226562 107.796875 197.539062 110.289062 197.644531 113.246094 C 197.765625 116.671875 195.03125 119.488281 191.636719 119.488281 C 190.859375 119.488281 190.113281 119.335938 189.429688 119.066406 L 189.429688 130.125 C 189.429688 131.449219 190.503906 132.523438 191.824219 132.523438 L 225.074219 132.523438 C 226.398438 132.523438 227.46875 131.449219 227.46875 130.125 Z M 227.46875 130.125 " fill-opacity="1" fill-rule="nonzero"/><path fill="#293237" d="M 215.554688 136.753906 L 212.558594 136.753906 C 212.429688 136.753906 212.324219 136.859375 212.324219 136.988281 C 212.324219 137.117188 212.429688 137.222656 212.558594 137.222656 L 215.554688 137.222656 C 215.683594 137.222656 215.789062 137.117188 215.789062 136.988281 C 215.789062 136.859375 215.683594 136.753906 215.554688 136.753906 Z M 215.554688 136.753906 " fill-opacity="1" fill-rule="nonzero"/><path fill="#e0e0e0" d="M 183.53125 130.324219 C 182.5 130.324219 181.53125 130.585938 180.679688 131.042969 L 180.679688 120.050781 C 180.679688 118.730469 179.613281 117.660156 178.296875 117.660156 L 156.96875 117.660156 C 156.628906 118.257812 155.875 118.199219 155.589844 117.660156 L 155.203125 117.660156 C 154.863281 118.46875 153.867188 118.402344 153.582031 117.660156 L 153.386719 117.660156 C 153.128906 118.566406 151.972656 118.574219 151.679688 117.660156 L 151.105469 117.660156 C 150.882812 118.414062 149.832031 118.554688 149.414062 117.660156 L 145.210938 117.660156 C 143.894531 117.660156 142.824219 118.730469 142.824219 120.050781 L 142.824219 132.761719 L 144.0625 131.9375 C 144.121094 131.898438 144.179688 131.863281 144.238281 131.832031 C 144.628906 131.511719 145.089844 131.273438 145.59375 131.148438 C 148.292969 130.464844 151.460938 130.332031 152.875 130.304688 L 152.871094 130.300781 C 153.050781 130.300781 153.222656 130.300781 153.390625 130.300781 C 153.539062 130.300781 153.628906 130.300781 153.628906 130.300781 C 158.339844 130.324219 158.292969 130.292969 159.796875 130.292969 C 161.199219 130.292969 160.457031 131.765625 159.285156 131.988281 C 158.269531 132.183594 156.027344 132.449219 154.953125 132.574219 L 155.925781 133.449219 C 156.378906 133.863281 156.523438 134.515625 156.292969 135.082031 L 154.972656 138.273438 C 154.855469 138.554688 154.597656 138.75 154.296875 138.785156 L 152.683594 138.976562 C 152.441406 139.003906 152.199219 138.9375 152.007812 138.785156 L 151.070312 138.042969 C 149.746094 138.0625 148.410156 137.949219 147.371094 137.816406 L 142.828125 141.550781 L 142.828125 153.203125 C 142.828125 154.523438 143.894531 155.59375 145.210938 155.59375 L 155.746094 155.59375 C 155.460938 154.886719 155.300781 154.117188 155.300781 153.3125 C 155.300781 149.921875 158.042969 147.171875 161.425781 147.171875 C 164.808594 147.171875 167.550781 149.921875 167.550781 153.3125 C 167.550781 154.117188 167.394531 154.886719 167.109375 155.59375 L 178.296875 155.59375 C 179.613281 155.59375 180.679688 154.523438 180.679688 153.203125 L 180.679688 141.746094 C 181.53125 142.203125 182.503906 142.460938 183.535156 142.460938 C 186.878906 142.460938 189.589844 139.746094 189.589844 136.394531 C 189.589844 133.042969 186.878906 130.324219 183.53125 130.324219 Z M 183.53125 130.324219 " fill-opacity="1" fill-rule="nonzero"/><path fill="#5fa9e0" d="M 141.515625 106.328125 C 140.488281 106.328125 139.597656 107.0625 139.15625 108.136719 C 138.664062 107.84375 138.183594 107.996094 137.886719 108.195312 C 137.441406 107.125 136.554688 106.394531 135.527344 106.394531 C 134.058594 106.394531 132.867188 107.890625 132.867188 109.730469 C 132.867188 111.574219 134.058594 113.070312 135.527344 113.070312 C 136.996094 113.070312 138.1875 111.574219 138.1875 109.730469 C 138.1875 109.355469 138.132812 108.996094 138.042969 108.660156 C 138.109375 108.597656 138.53125 108.253906 138.996094 108.605469 C 138.90625 108.9375 138.859375 109.292969 138.859375 109.667969 C 138.859375 111.511719 140.046875 113.003906 141.515625 113.003906 C 142.988281 113.003906 144.175781 111.507812 144.175781 109.667969 C 144.175781 107.824219 142.988281 106.328125 141.515625 106.328125 Z M 135.527344 112.601562 C 134.316406 112.601562 133.332031 111.3125 133.332031 109.730469 C 133.332031 108.148438 134.316406 106.863281 135.527344 106.863281 C 136.734375 106.863281 137.71875 108.148438 137.71875 109.730469 C 137.71875 111.3125 136.734375 112.601562 135.527344 112.601562 Z M 141.515625 112.535156 C 140.308594 112.535156 139.324219 111.25 139.324219 109.667969 C 139.324219 108.085938 140.308594 106.796875 141.515625 106.796875 C 142.726562 106.796875 143.710938 108.085938 143.710938 109.667969 C 143.710938 111.25 142.726562 112.535156 141.515625 112.535156 Z M 141.515625 112.535156 " fill-opacity="1" fill-rule="nonzero"/></svg>